<svg xmlns="http://www.w3.org/2000/svg" width="19" height="20" viewBox="0 0 19 20">
  <path fill-rule="evenodd" stroke-width=".2"
    d="M13.788 13.551a7.376 7.376 0 002.053-5.126 7.376 7.376 0 00-2.174-5.25A7.373 7.373 0 008.421 1a7.367 7.367 0 00-5.247 2.175A7.382 7.382 0 001 8.425c0 1.983.772 3.848 2.174 5.25A7.373 7.373 0 008.42 15.85a7.36 7.36 0 004.638-1.629l2.94 3.21c.98 1.07 1.141 1.409 1.141 1.409a.492.492 0 00.7.03.495.495 0 00.03-.699l-4.082-4.62zm-11.8-5.126c0-3.548 2.886-6.435 6.432-6.435 3.546 0 6.43 2.887 6.43 6.435 0 3.548-2.884 6.435-6.43 6.435s-6.432-2.887-6.432-6.435z">
  </path>
</svg>